<?xml version="1.0" encoding="utf-8"?>
<!-- Generator: Adobe Illustrator 24.3.0, SVG Export Plug-In . SVG Version: 6.00 Build 0)  -->
<svg version="1.1" id="Layer_1" xmlns="http://www.w3.org/2000/svg" xmlns:xlink="http://www.w3.org/1999/xlink" x="0px" y="0px"
	 viewBox="0 0 512 512" style="enable-background:new 0 0 512 512;" xml:space="preserve">
<style type="text/css">
	.st0{fill:#4D4D4D;}
	.st1{fill:#1793D1;}
</style>
<g id="XMLID_1_">
	<path id="XMLID_8_" class="st0" d="M161.97,227.26c-7.3,0-13.33,1.54-15.71,2.25l-2.39,13.05c0,0,12.07-3.23,17.4-3.09
		c8.84,0.28,9.54,3.37,9.4,7.44c0.14,0.28-2.25-3.65-9.82-3.79c-9.54-0.14-23.15,3.37-23.15,17.82
		c-0.28,16.28,12.21,21.05,20.63,21.19c7.58-0.14,11.22-2.81,13.05-4.35c2.53-2.67,5.47-5.33,8.28-8.56
		c-2.67,4.77-4.91,8.14-7.3,10.66v2.1l11.51-1.96l0.14-31.43C183.86,244.23,186.53,227.26,161.97,227.26L161.97,227.26z
		 M160.29,254.62c4.77,0,10.24,2.39,10.24,8.14c0,5.19-6.45,8-10.66,7.86c-4.21,0-9.82-3.37-9.82-8.42
		C150.18,257.7,155.38,254.48,160.29,254.62z M191.58,230.06l-0.14,52.06l13.47-2.53v-29.47c0-4.35,6.31-9.54,14.17-9.4
		c1.68-3.09,4.77-10.8,5.61-12.49c-17.54,0-17.82,5.05-20.91,7.58c0-4.77,0-7.72,0-7.72L191.58,230.06L191.58,230.06L191.58,230.06z
		 M267.35,236.94c-0.14,0-7.02-8-20.91-8.14c-12.91-0.28-27.5,4.77-27.78,26.52c0.14,19.08,14.03,26.66,27.78,26.8
		c14.87,0.14,20.77-9.26,21.05-9.54c-1.82-1.54-8.42-8.14-8.42-8.14s-4.07,5.89-12.21,6.03c-8,0.14-15.01-6.17-15.15-15.01
		c-0.14-8.7,6.45-13.47,15.15-13.89c7.58,0,11.93,4.91,11.93,4.91L267.35,236.94L267.35,236.94z M284.32,211.96l-12.77,2.95
		l0.14,67.77l12.49-2.24l0.14-31.85c0-3.37,4.77-8.42,12.91-8.28c7.72,0.14,9.4,5.05,9.4,5.75l0.28,36.9l12.35-2.24v-39.15
		c0.14-3.79-8.28-11.79-21.61-11.79c-6.31,0-9.82,1.4-11.65,2.53c-3.09,2.39-6.59,4.63-9.96,7.58c3.23-4.07,5.89-6.88,8.42-8.98
		L284.32,211.96L284.32,211.96z"/>
	<path id="XMLID_20_" class="st1" d="M329.92,213.65l5.75-1.4l-0.7,68.33l-5.89,0.98L329.92,213.65z M345.22,234.13l5.05-2.25
		l-0.7,48.97l-4.91,0.98L345.22,234.13z M344.38,216.45l4.07-3.37l3.37,3.79l-4.07,3.37L344.38,216.45z M359.81,233.15l5.75-1.12
		l-0.14,10.24c0,0.42,3.37-11.51,18.66-11.22c14.87,0.14,17.12,11.51,16.98,14.03l-0.28,36.06l-5.05,1.12l0.42-35.5
		c0.14-0.98-2.25-9.82-12.63-9.82c-10.52,0-17.82,7.58-17.96,12.35l-0.42,31.29l-5.89,1.54L359.81,233.15L359.81,233.15
		L359.81,233.15z M451.01,281.42l-5.75,1.12l0.14-10.24c0-0.42-3.37,11.51-18.66,11.22c-14.87-0.14-17.12-11.51-16.98-14.03
		l0.28-36.06l6.17-1.26l-0.42,35.5c0,0.98,0.98,9.96,11.51,9.96s17.96-6.31,18.1-15.71l0.28-28.06l5.75-1.4L451.01,281.42z
		 M463.08,232.73l-4.07,3.09l15.15,20.2l-16.84,23.29l4.21,3.23l15.86-21.61l15.71,22.17l4.07-3.09l-16.84-23.71l14.03-19.08
		l-4.21-3.51l-12.77,17.68L463.08,232.73L463.08,232.73z M75.26,180.67c-6.74,16.42-10.8,27.22-18.24,43.08
		c4.63,4.91,10.24,10.52,19.36,16.84c-9.82-4.07-16.56-8.14-21.47-12.35c-9.54,19.92-24.55,48.27-54.86,102.85
		c23.85-13.75,42.37-22.31,59.63-25.54c-0.7-3.23-1.12-6.59-1.12-10.24v-0.7c0.42-15.29,8.28-27.08,17.82-26.24
		c9.4,0.84,16.7,13.89,16.42,29.18c0,2.95-0.42,5.61-0.98,8.28c17.12,3.37,35.36,11.79,58.93,25.4
		c-4.63-8.56-8.84-16.28-12.77-23.57c-6.17-4.77-12.77-11.08-25.96-17.96c9.12,2.39,15.71,5.05,20.77,8.14
		C92.24,223.05,89.01,213.08,75.26,180.67L75.26,180.67L75.26,180.67z M504.61,278.33v-4.21h-1.54v-0.56h3.79v0.56h-1.54v4.21
		H504.61z M507.42,278.33v-4.77h0.98l1.12,3.37c0.14,0.28,0.14,0.56,0.28,0.7c0-0.14,0.14-0.42,0.28-0.7l1.12-3.37h0.84v4.77h-0.56
		v-4.07l-1.4,4.07h-0.56l-1.4-4.07v4.07H507.42z M151.31,317.9v-4.07h-1.54v-0.56h3.65v0.56h-1.54v4.07H151.31z M154.11,317.9v-4.63
		h0.98l1.12,3.37c0.14,0.28,0.14,0.56,0.28,0.7c0-0.14,0.14-0.42,0.28-0.7l1.12-3.23h0.84v4.63h-0.56v-3.93l-1.4,3.93h-0.56
		l-1.4-3.93v3.93h-0.7V317.9z"/>
</g>
</svg>
